<svg width="185" height="31.61" viewBox="0 0 220.28 37.65" xmlns="http://www.w3.org/2000/svg"><g id="svgGroup" stroke-linecap="round" fill-rule="evenodd" font-size="9pt" stroke="#069" stroke-width="0.01mm" fill="#069" style="stroke:#069;stroke-width:0.01mm;fill:#069"><path d="M 0.24 4.351 A 3.536 3.536 0 0 0 0.214 4.447 Q 0.056 5.067 0 6.15 A 8.445 8.445 0 0 0 0.001 6.272 Q 0.035 8.61 1.38 8.61 A 91.925 91.925 0 0 0 1.979 8.608 Q 4.03 8.595 6.15 8.49 A 42.575 42.575 0 0 1 6.147 8.564 Q 5.996 11.746 5.282 16.869 A 187.379 187.379 0 0 1 5.235 17.205 Q 4.488 22.493 4.47 24.162 A 7.438 7.438 0 0 0 4.47 24.24 Q 4.47 25.645 5.169 26.655 A 3.843 3.843 0 0 0 5.4 26.955 Q 6.33 28.05 8.88 28.71 Q 8.46 27.72 8.46 25.17 Q 8.46 22.68 9.347 16.198 A 259.302 259.302 0 0 1 9.39 15.885 A 1501.955 1501.955 0 0 0 9.419 15.674 Q 10.321 9.136 10.38 8.28 A 122.265 122.265 0 0 0 10.447 8.275 Q 12.484 8.135 13.519 7.994 A 15.025 15.025 0 0 0 13.62 7.98 Q 16.882 7.631 17.458 4.03 A 8.696 8.696 0 0 0 17.49 3.81 A 52.684 52.684 0 0 1 17.021 3.91 Q 12.633 4.826 8.578 4.886 A 38.336 38.336 0 0 1 8.01 4.89 Q 3.692 4.89 0.547 4.399 A 29.719 29.719 0 0 1 0.24 4.35 Z" id="0" vector-effect="non-scaling-stroke"/><path d="M 24.42 20.4 Q 22.98 20.4 21.6 20.07 A 3.202 3.202 0 0 0 21.596 20.109 Q 21.57 20.409 21.57 21 Q 21.57 23.487 22.498 24.747 A 3.097 3.097 0 0 0 22.5 24.75 Q 23.409 25.981 24.661 26.009 A 2.616 2.616 0 0 0 24.72 26.01 A 4.18 4.18 0 0 0 25.2 25.983 Q 26.226 25.864 27.173 25.235 A 5.42 5.42 0 0 0 27.18 25.23 A 6.038 6.038 0 0 0 27.538 24.972 Q 28.453 24.26 29.169 23.149 A 9.188 9.188 0 0 0 29.22 23.07 Q 30.234 23.295 30.296 24.077 A 1.315 1.315 0 0 1 30.3 24.18 Q 27.75 28.091 23.774 28.225 A 8.43 8.43 0 0 1 23.49 28.23 Q 21.048 28.23 19.198 26.413 A 7.986 7.986 0 0 1 19.08 26.295 A 6.002 6.002 0 0 1 18.275 25.269 Q 17.249 23.62 17.193 21.194 A 12.257 12.257 0 0 1 17.19 20.91 A 13.269 13.269 0 0 1 17.199 20.428 Q 17.282 18.137 18.161 16.051 A 12.616 12.616 0 0 1 18.18 16.005 A 9.278 9.278 0 0 1 18.446 15.435 Q 19.358 13.641 21.023 12.311 A 11.127 11.127 0 0 1 21.33 12.075 Q 23.49 10.47 26.115 10.47 A 11.2 11.2 0 0 1 26.278 10.471 Q 28.778 10.508 29.97 11.67 A 4.12 4.12 0 0 1 30.19 11.902 Q 31.159 13.006 31.198 14.677 A 6.054 6.054 0 0 1 31.2 14.82 Q 31.2 17.494 29.433 18.873 A 4.877 4.877 0 0 1 29.235 19.02 A 7.042 7.042 0 0 1 28.333 19.558 Q 26.756 20.345 24.706 20.396 A 11.499 11.499 0 0 1 24.42 20.4 Z M 21.72 18.81 L 22.17 18.81 Q 24.483 18.81 25.724 17.75 A 3.515 3.515 0 0 0 26.025 17.46 Q 27.21 16.175 27.267 14.4 A 5.624 5.624 0 0 0 27.27 14.22 Q 27.27 13.692 27.084 13.267 A 2.014 2.014 0 0 0 26.865 12.885 Q 26.46 12.33 25.68 12.33 A 2.394 2.394 0 0 0 25.432 12.343 Q 24.064 12.485 23.1 14.22 Q 22.05 16.11 21.72 18.81 Z" id="1" vector-effect="non-scaling-stroke"/><path d="M 38.28 21 A 16.673 16.673 0 0 0 38.281 21.155 Q 38.326 25.99 41.196 26.01 A 3.433 3.433 0 0 0 41.22 26.01 Q 42.36 26.01 43.53 25.23 A 6.038 6.038 0 0 0 43.888 24.972 Q 44.803 24.26 45.519 23.149 A 9.188 9.188 0 0 0 45.57 23.07 Q 46.584 23.295 46.646 24.077 A 1.315 1.315 0 0 1 46.65 24.18 A 11.081 11.081 0 0 1 46.51 24.416 Q 45.403 26.235 43.876 27.128 A 6.134 6.134 0 0 1 43.56 27.3 Q 41.73 28.23 39.9 28.23 A 6.491 6.491 0 0 1 39.598 28.223 Q 37.42 28.121 35.84 26.543 A 6.914 6.914 0 0 1 35.715 26.415 A 5.311 5.311 0 0 1 35.287 25.904 Q 33.99 24.142 33.99 21.15 Q 33.99 16.881 36.267 13.806 A 11.581 11.581 0 0 1 36.42 13.605 A 9.4 9.4 0 0 1 36.632 13.341 Q 38.996 10.509 42.884 10.471 A 10.85 10.85 0 0 1 42.99 10.47 A 9.163 9.163 0 0 1 43.204 10.472 Q 45.355 10.523 46.47 11.595 A 4.568 4.568 0 0 1 46.629 11.755 Q 47.64 12.829 47.64 14.265 Q 47.64 15.8 46.708 16.935 A 4.444 4.444 0 0 1 46.695 16.95 A 3.732 3.732 0 0 1 46.56 17.105 Q 45.647 18.09 44.28 18.09 A 3.487 3.487 0 0 1 43.785 18.055 Q 43.313 17.987 42.84 17.79 A 2.294 2.294 0 0 0 42.91 17.707 Q 43.32 17.194 43.68 16.185 A 8.365 8.365 0 0 0 43.75 15.981 Q 44.07 15.003 44.07 14.16 A 4.019 4.019 0 0 0 44.068 14.047 Q 44.022 12.387 42.58 12.332 A 2.634 2.634 0 0 0 42.48 12.33 A 2.449 2.449 0 0 0 42.225 12.343 Q 40.588 12.514 39.514 14.914 A 10.006 10.006 0 0 0 39.45 15.06 A 13.981 13.981 0 0 0 38.966 16.366 Q 38.301 18.474 38.281 20.847 A 17.522 17.522 0 0 0 38.28 21 Z" id="2" vector-effect="non-scaling-stroke"/><path d="M 55.206 18.097 A 17.953 17.953 0 0 0 55.08 18.51 Q 55.283 16.418 55.839 11.847 A 865.237 865.237 0 0 1 55.875 11.55 Q 56.46 6.75 56.46 5.25 Q 56.46 3.03 55.635 1.815 A 2.871 2.871 0 0 0 55.556 1.705 Q 54.748 0.628 52.768 0.058 A 10.872 10.872 0 0 0 52.56 0 A 1.995 1.995 0 0 1 52.569 0.023 Q 52.909 0.904 52.92 3.349 A 36.69 36.69 0 0 1 52.92 3.51 A 41.774 41.774 0 0 1 52.92 3.592 Q 52.909 9.288 51.35 20.113 A 302.085 302.085 0 0 1 51.3 20.46 A 146.292 146.292 0 0 0 51.275 20.639 Q 50.806 24.01 50.79 25.297 A 7.096 7.096 0 0 0 50.79 25.38 Q 50.79 26.277 51.153 26.833 A 1.729 1.729 0 0 0 51.54 27.255 Q 52.29 27.84 54 27.84 Q 54.3 27.84 55.26 27.78 A 6.305 6.305 0 0 1 55.255 27.748 Q 55.088 26.747 55.08 24.756 A 50.661 50.661 0 0 1 55.08 24.555 A 17.567 17.567 0 0 1 55.096 23.8 Q 55.162 22.272 55.493 20.737 A 19.316 19.316 0 0 1 55.62 20.19 Q 56.126 18.137 56.857 16.782 A 8.663 8.663 0 0 1 56.955 16.605 A 14.167 14.167 0 0 1 57.047 16.447 Q 57.731 15.28 58.471 14.544 A 6.122 6.122 0 0 1 58.62 14.4 Q 59.395 13.679 60.051 13.6 A 1.333 1.333 0 0 1 60.21 13.59 A 1.442 1.442 0 0 1 60.226 13.59 Q 61.373 13.603 61.409 15.448 A 6.232 6.232 0 0 1 61.41 15.57 A 8.607 8.607 0 0 1 61.41 15.611 Q 61.403 17.151 60.847 20.185 A 72.171 72.171 0 0 1 60.81 20.385 Q 60.229 23.509 60.211 24.649 A 4.484 4.484 0 0 0 60.21 24.72 A 6.886 6.886 0 0 0 60.212 24.876 Q 60.243 26.27 60.847 27.037 A 2.191 2.191 0 0 0 61.275 27.45 Q 62.307 28.206 64.704 28.229 A 15.849 15.849 0 0 0 64.86 28.23 A 32.973 32.973 0 0 0 64.955 28.23 Q 65.562 28.228 65.919 28.204 A 6.005 6.005 0 0 0 65.969 28.2 Q 65.178 27.766 64.778 27.19 A 2.359 2.359 0 0 1 64.65 26.985 Q 64.26 26.28 64.26 24.735 A 8.347 8.347 0 0 1 64.26 24.698 Q 64.267 23.15 64.845 19.8 Q 65.412 16.516 65.429 14.654 A 12.482 12.482 0 0 0 65.43 14.535 Q 65.43 12.66 64.665 11.565 Q 63.936 10.521 62.253 10.472 A 5.777 5.777 0 0 0 62.085 10.47 A 2.855 2.855 0 0 0 61.979 10.472 Q 60.266 10.535 58.301 12.652 A 14.163 14.163 0 0 0 58.17 12.795 Q 56.199 14.977 55.206 18.097 Z" id="3" vector-effect="non-scaling-stroke"/><path d="M 75.18 12.87 Q 75.18 13.32 74.445 17.595 Q 73.71 21.87 73.695 24.645 Q 73.68 27.42 74.04 28.23 A 11.659 11.659 0 0 1 73.895 28.192 Q 71.771 27.618 70.961 26.516 A 2.683 2.683 0 0 1 70.89 26.415 Q 70.08 25.2 70.08 22.86 Q 70.08 21.6 70.56 18.3 A 82.624 82.624 0 0 0 70.59 18.095 Q 71.034 14.987 71.04 13.22 A 14.17 14.17 0 0 0 71.04 13.17 A 35.821 35.821 0 0 0 71.039 12.972 Q 71.031 11.363 70.875 10.437 A 6.505 6.505 0 0 0 70.86 10.35 A 16.566 16.566 0 0 1 71.024 10.336 Q 71.508 10.297 71.943 10.291 A 11.162 11.162 0 0 1 72.09 10.29 Q 73.747 10.29 74.438 10.821 A 1.45 1.45 0 0 1 74.505 10.875 A 1.529 1.529 0 0 1 74.688 11.064 Q 75.15 11.63 75.178 12.726 A 5.628 5.628 0 0 1 75.18 12.87 Z M 75.63 7.65 Q 74.79 7.77 74.16 7.77 A 8.459 8.459 0 0 1 73.982 7.768 Q 71.07 7.707 71.07 5.61 Q 71.07 4.83 71.52 3.48 Q 72.36 3.36 72.99 3.36 A 8.459 8.459 0 0 1 73.168 3.362 Q 76.08 3.423 76.08 5.52 Q 76.08 6.3 75.63 7.65 Z" id="4" vector-effect="non-scaling-stroke"/><path d="M 85.83 20.4 Q 84.39 20.4 83.01 20.07 A 3.202 3.202 0 0 0 83.006 20.109 Q 82.98 20.409 82.98 21 Q 82.98 23.487 83.908 24.747 A 3.097 3.097 0 0 0 83.91 24.75 Q 84.819 25.981 86.071 26.009 A 2.616 2.616 0 0 0 86.13 26.01 A 4.18 4.18 0 0 0 86.61 25.983 Q 87.636 25.864 88.583 25.235 A 5.42 5.42 0 0 0 88.59 25.23 A 6.038 6.038 0 0 0 88.948 24.972 Q 89.863 24.26 90.579 23.149 A 9.188 9.188 0 0 0 90.63 23.07 Q 91.644 23.295 91.706 24.077 A 1.315 1.315 0 0 1 91.71 24.18 Q 89.16 28.091 85.184 28.225 A 8.43 8.43 0 0 1 84.9 28.23 Q 82.458 28.23 80.608 26.413 A 7.986 7.986 0 0 1 80.49 26.295 A 6.002 6.002 0 0 1 79.685 25.269 Q 78.659 23.62 78.603 21.194 A 12.257 12.257 0 0 1 78.6 20.91 A 13.269 13.269 0 0 1 78.609 20.428 Q 78.692 18.137 79.571 16.051 A 12.616 12.616 0 0 1 79.59 16.005 A 9.278 9.278 0 0 1 79.856 15.435 Q 80.768 13.641 82.433 12.311 A 11.127 11.127 0 0 1 82.74 12.075 Q 84.9 10.47 87.525 10.47 A 11.2 11.2 0 0 1 87.688 10.471 Q 90.188 10.508 91.38 11.67 A 4.12 4.12 0 0 1 91.6 11.902 Q 92.569 13.006 92.608 14.677 A 6.054 6.054 0 0 1 92.61 14.82 Q 92.61 17.494 90.843 18.873 A 4.877 4.877 0 0 1 90.645 19.02 A 7.042 7.042 0 0 1 89.743 19.558 Q 88.166 20.345 86.116 20.396 A 11.499 11.499 0 0 1 85.83 20.4 Z M 83.13 18.81 L 83.58 18.81 Q 85.893 18.81 87.134 17.75 A 3.515 3.515 0 0 0 87.435 17.46 Q 88.62 16.175 88.677 14.4 A 5.624 5.624 0 0 0 88.68 14.22 Q 88.68 13.692 88.494 13.267 A 2.014 2.014 0 0 0 88.275 12.885 Q 87.87 12.33 87.09 12.33 A 2.394 2.394 0 0 0 86.842 12.343 Q 85.474 12.485 84.51 14.22 Q 83.46 16.11 83.13 18.81 Z" id="5" vector-effect="non-scaling-stroke"/><path d="M 106.92 26.7 L 106.05 26.19 A 1.976 1.976 0 0 1 106.052 26.177 Q 106.094 25.854 106.7 21.789 A 4511.833 4511.833 0 0 1 106.71 21.72 Q 108.023 12.95 108.03 5.811 A 78.174 78.174 0 0 0 108.03 5.73 A 26.033 26.033 0 0 0 108.03 5.583 Q 108.017 3.329 107.61 2.37 A 13.915 13.915 0 0 1 107.808 2.423 Q 110.774 3.247 111.592 4.929 A 3.024 3.024 0 0 1 111.63 5.01 A 16.871 16.871 0 0 1 111.921 4.873 Q 114.343 3.759 116.489 3.721 A 8.548 8.548 0 0 1 116.64 3.72 Q 120.725 3.72 123.086 6.903 A 9.653 9.653 0 0 1 123.15 6.99 A 11.262 11.262 0 0 1 123.77 7.943 Q 125.455 10.844 125.518 14.895 A 20.344 20.344 0 0 1 125.52 15.21 A 18.136 18.136 0 0 1 125.515 15.657 Q 125.447 18.415 124.535 20.757 A 13.361 13.361 0 0 1 123.69 22.53 Q 121.769 25.891 118.387 27.311 A 11.61 11.61 0 0 1 117.96 27.48 A 11.757 11.757 0 0 1 116.029 28.018 Q 114.909 28.23 113.73 28.23 Q 111.51 28.23 109.635 27.72 A 26.807 26.807 0 0 1 109.461 27.672 Q 107.734 27.19 106.933 26.708 A 3.63 3.63 0 0 1 106.92 26.7 Z M 110.43 25.53 A 6.194 6.194 0 0 0 110.802 25.66 Q 111.722 25.948 112.797 25.977 A 9 9 0 0 0 113.04 25.98 A 7.912 7.912 0 0 0 113.363 25.973 Q 115.647 25.88 117.372 24.457 A 7.355 7.355 0 0 0 117.555 24.3 Q 119.46 22.62 120.315 20.19 A 14.695 14.695 0 0 0 120.689 18.956 Q 121.17 17.078 121.17 15.03 A 17.57 17.57 0 0 0 121.168 14.791 Q 121.12 11.258 119.643 8.946 A 8.039 8.039 0 0 0 119.52 8.76 Q 117.87 6.33 115.08 6.33 A 10.901 10.901 0 0 0 114.811 6.333 Q 113.294 6.371 112.108 6.835 A 6.215 6.215 0 0 0 112.02 6.87 A 9.042 9.042 0 0 1 112.02 6.929 Q 112.008 8.815 111.225 16.08 A 489.49 489.49 0 0 0 111.2 16.309 Q 110.43 23.492 110.43 25.53 Z" id="7" vector-effect="non-scaling-stroke"/><path d="M 135.33 20.4 Q 133.89 20.4 132.51 20.07 A 3.202 3.202 0 0 0 132.506 20.109 Q 132.48 20.409 132.48 21 Q 132.48 23.487 133.408 24.747 A 3.097 3.097 0 0 0 133.41 24.75 Q 134.319 25.981 135.571 26.009 A 2.616 2.616 0 0 0 135.63 26.01 A 4.18 4.18 0 0 0 136.11 25.983 Q 137.136 25.864 138.083 25.235 A 5.42 5.42 0 0 0 138.09 25.23 A 6.038 6.038 0 0 0 138.448 24.972 Q 139.363 24.26 140.079 23.149 A 9.188 9.188 0 0 0 140.13 23.07 Q 141.144 23.295 141.206 24.077 A 1.315 1.315 0 0 1 141.21 24.18 Q 138.66 28.091 134.684 28.225 A 8.43 8.43 0 0 1 134.4 28.23 Q 131.958 28.23 130.108 26.413 A 7.986 7.986 0 0 1 129.99 26.295 A 6.002 6.002 0 0 1 129.185 25.269 Q 128.159 23.62 128.103 21.194 A 12.257 12.257 0 0 1 128.1 20.91 A 13.269 13.269 0 0 1 128.109 20.428 Q 128.192 18.137 129.071 16.051 A 12.616 12.616 0 0 1 129.09 16.005 A 9.278 9.278 0 0 1 129.356 15.435 Q 130.268 13.641 131.933 12.311 A 11.127 11.127 0 0 1 132.24 12.075 Q 134.4 10.47 137.025 10.47 A 11.2 11.2 0 0 1 137.188 10.471 Q 139.688 10.508 140.88 11.67 A 4.12 4.12 0 0 1 141.1 11.902 Q 142.069 13.006 142.108 14.677 A 6.054 6.054 0 0 1 142.11 14.82 Q 142.11 17.494 140.343 18.873 A 4.877 4.877 0 0 1 140.145 19.02 A 7.042 7.042 0 0 1 139.243 19.558 Q 137.666 20.345 135.616 20.396 A 11.499 11.499 0 0 1 135.33 20.4 Z M 132.63 18.81 L 133.08 18.81 Q 135.393 18.81 136.634 17.75 A 3.515 3.515 0 0 0 136.935 17.46 Q 138.12 16.175 138.177 14.4 A 5.624 5.624 0 0 0 138.18 14.22 Q 138.18 13.692 137.994 13.267 A 2.014 2.014 0 0 0 137.775 12.885 Q 137.37 12.33 136.59 12.33 A 2.394 2.394 0 0 0 136.342 12.343 Q 134.974 12.485 134.01 14.22 Q 132.96 16.11 132.63 18.81 Z" id="8" vector-effect="non-scaling-stroke"/><path d="M 145.865 26.883 A 4.485 4.485 0 0 0 145.95 27.03 Q 146.589 28.076 149.171 28.222 A 13.734 13.734 0 0 0 149.34 28.23 A 89.409 89.409 0 0 1 149.33 28.084 Q 149.226 26.543 149.22 25.637 A 16.409 16.409 0 0 1 149.22 25.53 Q 149.22 21.09 150.09 13.83 A 673.404 673.404 0 0 0 150.117 13.6 Q 150.947 6.661 150.96 5.293 A 4.442 4.442 0 0 0 150.96 5.25 Q 150.96 3.03 150.135 1.815 A 2.871 2.871 0 0 0 150.056 1.705 Q 149.248 0.628 147.268 0.058 A 10.872 10.872 0 0 0 147.06 0 A 1.873 1.873 0 0 1 147.087 0.071 Q 147.409 0.983 147.42 3.715 A 48.371 48.371 0 0 1 147.42 3.9 A 18.701 18.701 0 0 1 147.42 4.005 Q 147.403 6.99 146.446 14.69 A 348.239 348.239 0 0 1 146.415 14.94 A 880.967 880.967 0 0 0 146.386 15.173 Q 145.41 22.997 145.41 24.15 Q 145.41 25.247 145.489 25.803 A 3.72 3.72 0 0 0 145.5 25.875 A 2.491 2.491 0 0 0 145.518 25.974 Q 145.608 26.415 145.865 26.883 Z" id="9" vector-effect="non-scaling-stroke"/><path d="M 160.08 12.87 Q 160.08 13.32 159.345 17.595 Q 158.61 21.87 158.595 24.645 Q 158.58 27.42 158.94 28.23 A 11.659 11.659 0 0 1 158.795 28.192 Q 156.671 27.618 155.861 26.516 A 2.683 2.683 0 0 1 155.79 26.415 Q 154.98 25.2 154.98 22.86 Q 154.98 21.6 155.46 18.3 A 82.624 82.624 0 0 0 155.49 18.095 Q 155.934 14.987 155.94 13.22 A 14.17 14.17 0 0 0 155.94 13.17 A 35.821 35.821 0 0 0 155.939 12.972 Q 155.931 11.363 155.775 10.437 A 6.505 6.505 0 0 0 155.76 10.35 A 16.566 16.566 0 0 1 155.924 10.336 Q 156.408 10.297 156.843 10.291 A 11.162 11.162 0 0 1 156.99 10.29 Q 158.647 10.29 159.338 10.821 A 1.45 1.45 0 0 1 159.405 10.875 A 1.529 1.529 0 0 1 159.588 11.064 Q 160.05 11.63 160.078 12.726 A 5.628 5.628 0 0 1 160.08 12.87 Z M 160.53 7.65 Q 159.69 7.77 159.06 7.77 A 8.459 8.459 0 0 1 158.882 7.768 Q 155.97 7.707 155.97 5.61 Q 155.97 4.83 156.42 3.48 Q 157.26 3.36 157.89 3.36 A 8.459 8.459 0 0 1 158.068 3.362 Q 160.98 3.423 160.98 5.52 Q 160.98 6.3 160.53 7.65 Z" id="10" vector-effect="non-scaling-stroke"/><path d="M 173.235 10.771 A 10.119 10.119 0 0 0 173.13 10.77 A 11.488 11.488 0 0 0 172.815 10.774 Q 170.987 10.824 169.44 11.46 A 9.372 9.372 0 0 0 169.376 11.486 Q 166.533 12.665 164.863 15.549 A 12.124 12.124 0 0 0 164.7 15.84 Q 163.17 18.57 163.17 21.75 A 12.161 12.161 0 0 0 163.17 21.841 Q 163.19 24.509 164.385 26.235 Q 165.6 27.99 167.91 27.99 A 4.303 4.303 0 0 0 168.61 27.933 Q 169.994 27.705 171.344 26.573 A 8.936 8.936 0 0 0 171.51 26.43 A 8.214 8.214 0 0 0 172.049 25.909 Q 173.316 24.568 174.038 22.609 A 12.29 12.29 0 0 0 174.15 22.29 Q 174.034 27.87 172.876 31.17 A 13.723 13.723 0 0 1 172.8 31.38 A 13.912 13.912 0 0 1 172.771 31.456 Q 172.241 32.846 171.54 33.78 A 8.741 8.741 0 0 1 171.525 33.8 Q 170.878 34.658 170.254 35.043 A 2.604 2.604 0 0 1 170.13 35.115 A 1.964 1.964 0 0 1 170.129 35.116 Q 169.515 35.449 168.722 35.486 A 4.291 4.291 0 0 1 168.525 35.49 A 2.104 2.104 0 0 1 168.363 35.484 Q 167.553 35.421 166.98 34.725 A 2.926 2.926 0 0 1 166.957 34.696 Q 166.408 34.013 166.356 33.104 A 3.373 3.373 0 0 1 166.35 32.91 A 4.208 4.208 0 0 1 166.35 32.852 Q 166.37 31.454 167.323 30.719 A 2.744 2.744 0 0 1 167.49 30.6 A 4.447 4.447 0 0 0 167.328 30.536 Q 166.86 30.362 166.405 30.316 A 3.237 3.237 0 0 0 166.08 30.3 Q 164.4 30.3 163.47 31.245 A 3.354 3.354 0 0 0 163.431 31.285 Q 162.54 32.222 162.54 33.675 A 3.311 3.311 0 0 0 162.542 33.792 Q 162.592 35.209 163.86 36.405 A 4.081 4.081 0 0 0 164.419 36.847 Q 165.569 37.603 167.303 37.647 A 8.531 8.531 0 0 0 167.52 37.65 A 7.182 7.182 0 0 0 167.525 37.65 Q 173.176 37.647 175.753 31.899 A 15.753 15.753 0 0 0 175.875 31.62 Q 178.44 25.59 178.44 13.59 A 12.733 12.733 0 0 1 178.44 13.547 Q 178.445 11.979 178.834 8.987 A 94.835 94.835 0 0 1 178.86 8.79 A 7.193 7.193 0 0 0 178.67 8.854 Q 177.845 9.148 177.231 9.599 A 4.489 4.489 0 0 0 177 9.78 A 2.719 2.719 0 0 0 176.897 9.867 Q 175.466 11.146 174.904 15.166 A 27.356 27.356 0 0 0 174.87 15.42 A 41.685 41.685 0 0 1 174.855 15.528 Q 174.126 20.823 172.375 23.414 A 8.076 8.076 0 0 1 172.26 23.58 A 5.876 5.876 0 0 1 172.225 23.627 Q 171.188 25.02 169.89 25.02 A 2.579 2.579 0 0 1 169.795 25.018 Q 167.7 24.941 167.7 21.42 A 9.843 9.843 0 0 1 167.701 21.268 Q 167.745 18.428 169.429 15.792 A 13.39 13.39 0 0 1 169.635 15.48 Q 171.464 12.786 174.486 12.022 A 9.16 9.16 0 0 1 174.84 11.94 Q 174.784 11.048 174.106 10.855 A 1.261 1.261 0 0 0 174 10.83 A 1.879 1.879 0 0 0 173.941 10.819 Q 173.676 10.775 173.235 10.771 Z" id="11" vector-effect="non-scaling-stroke"/><path d="M 186.936 18.097 A 17.953 17.953 0 0 0 186.81 18.51 Q 187.013 16.418 187.569 11.847 A 865.237 865.237 0 0 1 187.605 11.55 Q 188.19 6.75 188.19 5.25 Q 188.19 3.03 187.365 1.815 A 2.871 2.871 0 0 0 187.286 1.705 Q 186.478 0.628 184.498 0.058 A 10.872 10.872 0 0 0 184.29 0 A 1.995 1.995 0 0 1 184.299 0.023 Q 184.639 0.904 184.65 3.349 A 36.69 36.69 0 0 1 184.65 3.51 A 41.774 41.774 0 0 1 184.65 3.592 Q 184.639 9.288 183.08 20.113 A 302.085 302.085 0 0 1 183.03 20.46 A 146.292 146.292 0 0 0 183.005 20.639 Q 182.536 24.01 182.52 25.297 A 7.096 7.096 0 0 0 182.52 25.38 Q 182.52 26.277 182.883 26.833 A 1.729 1.729 0 0 0 183.27 27.255 Q 184.02 27.84 185.73 27.84 Q 186.03 27.84 186.99 27.78 A 6.305 6.305 0 0 1 186.985 27.748 Q 186.818 26.747 186.81 24.756 A 50.661 50.661 0 0 1 186.81 24.555 A 17.567 17.567 0 0 1 186.826 23.8 Q 186.892 22.272 187.223 20.737 A 19.316 19.316 0 0 1 187.35 20.19 Q 187.856 18.137 188.587 16.782 A 8.663 8.663 0 0 1 188.685 16.605 A 14.167 14.167 0 0 1 188.777 16.447 Q 189.461 15.28 190.201 14.544 A 6.122 6.122 0 0 1 190.35 14.4 Q 191.125 13.679 191.781 13.6 A 1.333 1.333 0 0 1 191.94 13.59 A 1.442 1.442 0 0 1 191.956 13.59 Q 193.103 13.603 193.139 15.448 A 6.232 6.232 0 0 1 193.14 15.57 A 8.607 8.607 0 0 1 193.14 15.611 Q 193.133 17.151 192.577 20.185 A 72.171 72.171 0 0 1 192.54 20.385 Q 191.959 23.509 191.941 24.649 A 4.484 4.484 0 0 0 191.94 24.72 A 6.886 6.886 0 0 0 191.942 24.876 Q 191.973 26.27 192.577 27.037 A 2.191 2.191 0 0 0 193.005 27.45 Q 194.037 28.206 196.434 28.229 A 15.849 15.849 0 0 0 196.59 28.23 A 32.973 32.973 0 0 0 196.685 28.23 Q 197.292 28.228 197.649 28.204 A 6.005 6.005 0 0 0 197.699 28.2 Q 196.908 27.766 196.508 27.19 A 2.359 2.359 0 0 1 196.38 26.985 Q 195.99 26.28 195.99 24.735 A 8.347 8.347 0 0 1 195.99 24.698 Q 195.997 23.15 196.575 19.8 Q 197.142 16.516 197.159 14.654 A 12.482 12.482 0 0 0 197.16 14.535 Q 197.16 12.66 196.395 11.565 Q 195.666 10.521 193.983 10.472 A 5.777 5.777 0 0 0 193.815 10.47 A 2.855 2.855 0 0 0 193.709 10.472 Q 191.996 10.535 190.031 12.652 A 14.163 14.163 0 0 0 189.9 12.795 Q 187.929 14.977 186.936 18.097 Z" id="12" vector-effect="non-scaling-stroke"/><path d="M 207.47 13.749 A 23.527 23.527 0 0 0 207.48 13.68 A 14.938 14.938 0 0 0 207.546 13.683 Q 208.172 13.71 209.31 13.71 A 4.921 4.921 0 0 0 209.454 13.708 Q 210.541 13.676 211.02 13.155 A 1.213 1.213 0 0 0 211.08 13.085 Q 211.504 12.546 211.528 11.315 A 7.73 7.73 0 0 0 211.53 11.16 Q 211.53 10.86 211.47 10.26 A 2.953 2.953 0 0 1 211.441 10.283 Q 210.306 11.162 207.936 11.245 A 13.746 13.746 0 0 1 207.78 11.25 A 39.149 39.149 0 0 0 207.795 11.118 Q 207.921 10.002 207.929 9.332 A 7.436 7.436 0 0 0 207.93 9.24 A 7.171 7.171 0 0 0 207.93 9.211 Q 207.924 7.737 207.31 6.82 A 2.913 2.913 0 0 0 207.03 6.465 A 2.703 2.703 0 0 0 206.965 6.397 Q 206.06 5.483 204.15 5.28 A 16.046 16.046 0 0 0 204.15 5.326 Q 204.151 5.654 204.165 6.27 A 40.759 40.759 0 0 1 204.167 6.36 Q 204.18 6.996 204.18 7.92 A 9.955 9.955 0 0 1 204.18 7.99 Q 204.173 8.955 203.983 11.021 A 107.949 107.949 0 0 1 203.97 11.16 Q 202.307 11.188 201.361 11.689 A 2.902 2.902 0 0 0 201.21 11.775 Q 200.25 12.36 200.25 13.95 A 4.006 4.006 0 0 0 200.25 13.996 Q 200.254 14.324 200.31 14.94 A 19.212 19.212 0 0 1 200.531 14.844 Q 202.013 14.213 203.346 13.945 A 11.027 11.027 0 0 1 203.64 13.89 Q 203.466 15.082 202.869 18.399 A 599.762 599.762 0 0 1 202.83 18.615 A 69.275 69.275 0 0 0 202.791 18.831 Q 202.2 22.172 202.2 24.12 A 11.611 11.611 0 0 0 202.202 24.31 Q 202.234 26.278 202.939 27.444 A 3.636 3.636 0 0 0 203.07 27.645 A 3.01 3.01 0 0 0 203.135 27.734 Q 203.994 28.873 206.107 29.452 A 11.272 11.272 0 0 0 206.25 29.49 Q 205.843 28.589 205.83 25.999 A 34.417 34.417 0 0 1 205.83 25.83 Q 205.83 23.1 206.85 17.43 Q 207.315 14.843 207.47 13.749 Z" id="13" vector-effect="non-scaling-stroke"/></g></svg>