<svg width="35" height="31.61" viewBox="0 0 37.09 30.41" xmlns="http://www.w3.org/2000/svg"><g id="svgGroup" stroke-linecap="round" fill-rule="evenodd" font-size="9pt" stroke="#069" stroke-width="0.01mm" fill="#069" style="stroke:#069;stroke-width:0.01mm;fill:#069"><path d="M 9.043 21.348 L 9.082 21.582 A 0.442 0.442 0 0 1 9.073 21.672 Q 9.062 21.726 9.036 21.767 A 0.233 0.233 0 0 1 8.994 21.816 Q 8.906 21.895 8.789 21.895 A 0.242 0.242 0 0 1 8.69 21.871 Q 8.592 21.827 8.477 21.699 Q 8.34 21.543 7.91 21.123 A 19.4 19.4 0 0 0 7.56 20.79 Q 7.246 20.498 6.855 20.156 A 40.731 40.731 0 0 0 6.196 19.592 A 52.13 52.13 0 0 0 5.469 18.994 A 30.706 30.706 0 0 0 3.906 17.813 A 21.385 21.385 0 0 0 2.525 16.911 A 19.268 19.268 0 0 0 2.314 16.787 A 10.26 10.26 0 0 0 1.643 16.429 Q 1.224 16.226 0.84 16.094 A 1.33 1.33 0 0 1 0.598 15.987 A 0.985 0.985 0 0 1 0.371 15.811 A 0.527 0.527 0 0 1 0.266 15.639 Q 0.204 15.481 0.196 15.241 A 2.149 2.149 0 0 1 0.195 15.176 A 17.126 17.126 0 0 0 0.166 14.17 A 5.292 5.292 0 0 0 0.134 13.82 Q 0.1 13.547 0.039 13.34 A 0.475 0.475 0 0 1 0.017 13.29 Q 0.008 13.264 0.004 13.242 A 0.208 0.208 0 0 1 0 13.203 A 0.435 0.435 0 0 1 0.101 12.926 A 0.676 0.676 0 0 1 0.205 12.822 Q 0.4 12.665 0.585 12.586 A 1.151 1.151 0 0 1 0.605 12.578 Q 0.689 12.545 1.086 12.305 A 35.945 35.945 0 0 0 1.23 12.217 Q 1.758 11.895 2.627 11.26 A 33.96 33.96 0 0 0 3.324 10.736 Q 3.943 10.259 4.688 9.648 A 40.384 40.384 0 0 0 5.779 8.719 Q 6.328 8.235 6.923 7.682 A 69.008 69.008 0 0 0 7.324 7.305 A 58.219 58.219 0 0 1 7.52 7.126 Q 7.64 7.017 7.744 6.924 A 1.495 1.495 0 0 1 7.821 6.859 Q 7.951 6.758 8.027 6.758 A 0.138 0.138 0 0 1 8.148 6.821 Q 8.164 6.845 8.176 6.879 A 0.364 0.364 0 0 1 8.184 6.904 A 1.996 1.996 0 0 1 8.223 7.089 A 2.516 2.516 0 0 1 8.242 7.227 A 6.513 6.513 0 0 0 8.291 7.578 Q 8.315 7.724 8.373 7.789 A 0.171 0.171 0 0 0 8.398 7.813 A 0.851 0.851 0 0 1 8.662 8.154 A 2.362 2.362 0 0 1 8.799 8.584 A 8.669 8.669 0 0 0 8.906 9.023 A 0.735 0.735 0 0 0 9.014 9.256 A 0.674 0.674 0 0 0 9.121 9.375 A 0.288 0.288 0 0 1 9.172 9.442 A 0.226 0.226 0 0 1 9.199 9.551 Q 9.199 9.693 9.123 9.86 A 1.278 1.278 0 0 1 9.082 9.941 Q 8.965 10.156 8.809 10.293 A 0.418 0.418 0 0 1 8.791 10.309 Q 8.705 10.384 8.265 10.741 A 171.097 171.097 0 0 1 8.203 10.791 A 27.381 27.381 0 0 1 7.738 11.159 Q 7.318 11.484 6.787 11.875 Q 5.938 12.5 4.932 13.154 Q 3.926 13.809 2.988 14.238 A 16.486 16.486 0 0 1 4.516 15.292 A 12.101 12.101 0 0 1 5.84 16.484 Q 6.809 17.504 7.456 18.401 A 12.086 12.086 0 0 1 7.666 18.701 A 16.63 16.63 0 0 1 8.098 19.372 Q 8.294 19.694 8.444 19.981 A 6.817 6.817 0 0 1 8.672 20.459 A 135.337 135.337 0 0 1 8.78 20.713 Q 8.978 21.181 9.034 21.325 A 2.208 2.208 0 0 1 9.043 21.348 Z" id="1" vector-effect="non-scaling-stroke"></path><path d="M 25.456 1.132 A 0.738 0.738 0 0 0 25.469 1.016 A 2.04 2.04 0 0 0 25.455 0.779 A 1.628 1.628 0 0 0 25.332 0.313 Q 25.195 0 24.785 0 A 0.414 0.414 0 0 0 24.512 0.098 A 1.41 1.41 0 0 0 24.297 0.322 Q 24.199 0.449 24.092 0.547 Q 23.984 0.645 23.828 0.645 Q 23.772 0.645 23.721 0.599 A 0.317 0.317 0 0 1 23.682 0.557 A 15.848 15.848 0 0 0 23.611 0.466 A 18.863 18.863 0 0 0 23.535 0.371 A 0.94 0.94 0 0 0 23.458 0.286 A 1.192 1.192 0 0 0 23.34 0.186 Q 23.223 0.098 23.027 0.098 A 1.466 1.466 0 0 0 22.993 0.098 Q 22.843 0.102 22.764 0.137 A 0.872 0.872 0 0 0 22.753 0.142 Q 22.715 0.159 22.683 0.178 A 0.523 0.523 0 0 0 22.617 0.225 A 2.105 2.105 0 0 0 22.591 0.247 Q 22.57 0.265 22.552 0.282 A 1.083 1.083 0 0 0 22.52 0.313 Q 22.48 0.352 22.383 0.352 Q 22.305 0.352 22.188 0.342 Q 22.07 0.332 21.973 0.332 A 0.517 0.517 0 0 0 21.777 0.369 Q 21.66 0.416 21.565 0.525 A 0.925 0.925 0 0 0 21.445 0.703 A 1.995 1.995 0 0 0 21.365 0.877 Q 21.261 1.132 21.163 1.523 A 10.403 10.403 0 0 0 21.074 1.914 Q 20.96 2.454 20.816 3.065 A 70.869 70.869 0 0 1 20.537 4.199 Q 20.215 5.469 19.717 7.1 A 115.232 115.232 0 0 1 19.685 7.205 Q 19.441 8 19.156 8.888 A 192.934 192.934 0 0 1 18.545 10.762 A 176.348 176.348 0 0 1 18.454 11.034 Q 18.134 11.994 17.766 13.063 A 295.231 295.231 0 0 1 16.973 15.332 A 123.967 123.967 0 0 1 15.942 18.108 A 98.588 98.588 0 0 1 14.922 20.654 A 140.065 140.065 0 0 1 14.639 21.326 Q 14.219 22.317 13.826 23.201 A 81.263 81.263 0 0 1 13.037 24.922 Q 12.385 26.299 11.86 27.308 A 37.486 37.486 0 0 1 11.523 27.94 A 114.35 114.35 0 0 1 11.305 28.339 Q 10.833 29.195 10.625 29.531 A 2.316 2.316 0 0 0 10.55 29.651 Q 10.473 29.784 10.445 29.882 A 0.367 0.367 0 0 0 10.43 29.981 Q 10.43 30.121 10.513 30.215 A 0.412 0.412 0 0 0 10.625 30.303 A 0.84 0.84 0 0 0 10.87 30.39 A 1.164 1.164 0 0 0 11.094 30.41 A 0.954 0.954 0 0 0 11.175 30.407 Q 11.316 30.395 11.465 30.341 A 1.677 1.677 0 0 0 11.719 30.225 Q 12.051 30.039 12.324 29.707 Q 12.559 29.434 12.998 28.74 A 25.688 25.688 0 0 0 13.287 28.273 Q 13.439 28.022 13.605 27.736 A 54.052 54.052 0 0 0 14.023 27.002 A 122.708 122.708 0 0 0 14.102 26.862 Q 14.378 26.367 14.685 25.809 A 209.354 209.354 0 0 0 15.332 24.619 A 111.414 111.414 0 0 0 16.069 23.23 A 135.124 135.124 0 0 0 16.836 21.738 A 338.625 338.625 0 0 0 17.23 20.957 A 389.023 389.023 0 0 0 18.457 18.496 A 219.304 219.304 0 0 0 20.137 15.02 A 117.241 117.241 0 0 0 20.81 13.552 A 101.029 101.029 0 0 0 22.354 9.941 A 178.279 178.279 0 0 0 22.625 9.265 Q 23.437 7.231 24.033 5.586 A 116.788 116.788 0 0 0 24.176 5.19 Q 24.601 4.003 24.892 3.105 A 37.791 37.791 0 0 0 25.098 2.451 Q 25.399 1.459 25.456 1.132 Z" id="2" vector-effect="non-scaling-stroke"></path><path d="M 28.008 21.582 L 28.047 21.348 A 5.139 5.139 0 0 1 28.077 21.269 Q 28.156 21.071 28.37 20.551 A 211.114 211.114 0 0 1 28.408 20.459 A 6.566 6.566 0 0 1 28.662 19.921 Q 28.949 19.374 29.404 18.701 Q 30 17.82 30.928 16.816 A 24.632 24.632 0 0 1 31.24 16.484 A 12.688 12.688 0 0 1 32.611 15.257 A 16.967 16.967 0 0 1 34.082 14.238 A 13.857 13.857 0 0 1 32.945 13.649 A 17.399 17.399 0 0 1 32.139 13.154 A 42.246 42.246 0 0 1 30.942 12.348 A 34.78 34.78 0 0 1 30.283 11.875 A 46.386 46.386 0 0 1 29.687 11.43 Q 29.456 11.254 29.253 11.094 A 21.97 21.97 0 0 1 28.877 10.791 Q 28.352 10.358 28.287 10.299 A 0.209 0.209 0 0 1 28.281 10.293 Q 28.125 10.156 28.008 9.941 A 1.166 1.166 0 0 1 27.939 9.792 Q 27.891 9.663 27.891 9.551 A 0.233 0.233 0 0 1 27.942 9.405 A 0.32 0.32 0 0 1 27.969 9.375 A 0.787 0.787 0 0 0 28.119 9.162 A 1.018 1.018 0 0 0 28.174 9.023 A 4.838 4.838 0 0 0 28.291 8.584 Q 28.34 8.359 28.428 8.154 A 0.851 0.851 0 0 1 28.691 7.813 A 0.196 0.196 0 0 0 28.74 7.757 Q 28.774 7.702 28.792 7.613 A 0.857 0.857 0 0 0 28.799 7.578 A 6.513 6.513 0 0 0 28.848 7.227 A 2.427 2.427 0 0 1 28.876 7.038 A 1.925 1.925 0 0 1 28.906 6.904 A 0.306 0.306 0 0 1 28.929 6.844 Q 28.946 6.81 28.97 6.79 A 0.138 0.138 0 0 1 29.063 6.758 A 0.172 0.172 0 0 1 29.121 6.77 Q 29.205 6.8 29.332 6.912 A 1.832 1.832 0 0 1 29.346 6.924 A 38.582 38.582 0 0 1 29.517 7.078 Q 29.634 7.184 29.766 7.305 Q 31.008 8.48 32.062 9.366 A 35.711 35.711 0 0 0 32.402 9.648 Q 33.221 10.32 33.888 10.83 A 32.722 32.722 0 0 0 34.463 11.26 Q 35.332 11.895 35.859 12.217 A 33.965 33.965 0 0 0 36.042 12.328 Q 36.356 12.517 36.458 12.566 A 0.427 0.427 0 0 0 36.484 12.578 A 1.329 1.329 0 0 1 36.682 12.678 Q 36.77 12.732 36.859 12.802 A 2.187 2.187 0 0 1 36.885 12.822 A 0.663 0.663 0 0 1 36.997 12.937 A 0.432 0.432 0 0 1 37.09 13.203 A 0.218 0.218 0 0 1 37.084 13.252 Q 37.075 13.292 37.051 13.34 Q 36.978 13.588 36.943 13.928 A 5.629 5.629 0 0 0 36.924 14.17 A 17.126 17.126 0 0 0 36.895 15.176 A 1.807 1.807 0 0 1 36.882 15.396 Q 36.853 15.63 36.757 15.764 A 0.447 0.447 0 0 1 36.719 15.811 A 0.997 0.997 0 0 1 36.469 16 A 1.353 1.353 0 0 1 36.25 16.094 Q 35.61 16.313 34.877 16.729 A 11.656 11.656 0 0 0 34.775 16.787 A 20.813 20.813 0 0 0 33.384 17.673 A 23.139 23.139 0 0 0 33.184 17.813 Q 32.383 18.379 31.621 18.994 A 52.13 52.13 0 0 0 30.894 19.592 A 40.731 40.731 0 0 0 30.234 20.156 A 35.504 35.504 0 0 0 29.793 20.549 Q 29.578 20.744 29.392 20.919 A 17.992 17.992 0 0 0 29.18 21.123 A 35.615 35.615 0 0 0 29.006 21.294 Q 28.77 21.527 28.656 21.651 A 2.643 2.643 0 0 0 28.613 21.699 Q 28.438 21.895 28.301 21.895 A 0.299 0.299 0 0 1 28.096 21.816 A 0.247 0.247 0 0 1 28.023 21.7 Q 28.011 21.659 28.009 21.61 A 0.519 0.519 0 0 1 28.008 21.582 Z" id="3" vector-effect="non-scaling-stroke"></path></g></svg>